<svg width="151" height="150" viewBox="0 0 151 150" fill="none" xmlns="http://www.w3.org/2000/svg">
<path d="M60.3565 107.607C61.6284 107.606 62.6965 106.652 62.8381 105.387L63.6743 97.9321C63.8269 96.56 62.8381 95.3234 61.4661 95.1696C60.094 95.017 58.8574 96.0046 58.7036 97.3779L57.8687 104.83C57.7222 106.197 58.7085 107.427 60.0757 107.58C60.1685 107.595 60.2625 107.605 60.3565 107.607Z" fill="#14274A"/>
<path d="M56.7566 114.768L56.4783 117.252C56.3331 118.619 57.3182 119.849 58.6841 120.002C58.7781 120.012 58.8721 120.017 58.9661 120.017C60.2381 120.017 61.3062 119.061 61.449 117.798L61.7261 115.312C61.8799 113.94 60.8924 112.703 59.5203 112.549C58.147 112.395 56.9104 113.382 56.7566 114.755V114.768Z" fill="#14274A"/>
<path d="M55.3637 127.19L54.2516 137.13C54.0978 138.502 55.0866 139.74 56.4586 139.892C56.5514 139.902 56.6454 139.907 56.7382 139.907C58.0114 139.906 59.0795 138.95 59.2211 137.685L60.3332 127.748C60.487 126.374 59.4994 125.138 58.1273 124.984C56.7553 124.83 55.5175 125.818 55.3637 127.19Z" fill="#14274A"/>
<path d="M53.1383 147.068C52.9845 148.439 53.9721 149.675 55.3442 149.83C55.4369 149.84 55.5321 149.845 55.6261 149.845C56.8981 149.844 57.9674 148.887 58.109 147.622L58.3861 145.138C58.54 143.762 57.5487 142.523 56.1742 142.37C54.7985 142.217 53.5595 143.207 53.4057 144.582L53.1383 147.068Z" fill="#14274A"/>
<path d="M85.0585 95.1697C83.6864 95.3235 82.6977 96.5601 82.8515 97.9322L83.6864 105.387C83.828 106.652 84.8974 107.606 86.1681 107.607C86.2633 107.609 86.3573 107.604 86.4513 107.593C87.8185 107.439 88.8048 106.211 88.6584 104.843L87.8234 97.3902C87.7538 96.7286 87.4218 96.1219 86.903 95.7056C86.3842 95.2881 85.7201 95.0953 85.0585 95.1697Z" fill="#14274A"/>
<path d="M87.0055 112.562C85.6347 112.717 84.6471 113.954 84.8009 115.325L85.078 117.81C85.2209 119.074 86.289 120.029 87.561 120.031C87.6549 120.031 87.7477 120.024 87.8417 120.015C89.2077 119.862 90.1952 118.633 90.0487 117.264L89.7716 114.78C89.6996 114.119 89.3688 113.513 88.85 113.097C88.33 112.681 87.6672 112.488 87.0055 112.562Z" fill="#14274A"/>
<path d="M88.4058 124.985C87.0386 125.138 86.0523 126.367 86.1987 127.736L87.3132 137.672C87.4548 138.937 88.5242 139.894 89.7962 139.895C89.8901 139.895 89.9829 139.89 90.0757 139.88C91.449 139.727 92.4378 138.49 92.2839 137.118L91.156 127.19C91.0022 125.824 89.773 124.839 88.4058 124.985Z" fill="#14274A"/>
<path d="M88.1566 145.138L88.4337 147.622C88.5753 148.887 89.6435 149.844 90.9166 149.845C91.0094 149.845 91.1034 149.84 91.1962 149.83C92.5683 149.677 93.557 148.44 93.4032 147.068L93.1261 144.583C92.9723 143.211 91.7357 142.222 90.3637 142.376C88.9916 142.528 88.0028 143.765 88.1566 145.138Z" fill="#14274A"/>
<path d="M73.4058 102.5C74.7864 102.5 75.9058 101.381 75.9058 100V97.5C75.9058 96.1194 74.7864 95 73.4058 95C72.0251 95 70.9058 96.1194 70.9058 97.5V100C70.9058 101.381 72.0251 102.5 73.4058 102.5Z" fill="#14274A"/>
<path d="M70.9058 120C70.9058 121.381 72.0251 122.5 73.4058 122.5C74.7864 122.5 75.9058 121.381 75.9058 120V110C75.9058 108.619 74.7864 107.5 73.4058 107.5C72.0251 107.5 70.9058 108.619 70.9058 110V120Z" fill="#14274A"/>
<path d="M70.9058 147.5C70.9058 148.881 72.0251 150 73.4058 150C74.7864 150 75.9058 148.881 75.9058 147.5V140C75.9058 138.619 74.7864 137.5 73.4058 137.5C72.0251 137.5 70.9058 138.619 70.9058 140V147.5Z" fill="#14274A"/>
<path d="M70.9058 130C70.9058 131.381 72.0251 132.5 73.4058 132.5C74.7864 132.5 75.9058 131.381 75.9058 130V127.5C75.9058 126.119 74.7864 125 73.4058 125C72.0251 125 70.9058 126.119 70.9058 127.5V130Z" fill="#14274A"/>
<path d="M48.8868 95.5531C47.5342 95.2797 46.2171 96.1512 45.9412 97.5026L45.4407 99.9525C45.3089 100.603 45.4395 101.279 45.8057 101.832C46.1719 102.385 46.7432 102.771 47.3938 102.903C47.5586 102.935 47.7259 102.952 47.8943 102.953C49.0796 102.951 50.1014 102.114 50.3382 100.952L50.8387 98.5023C50.9717 97.8529 50.8399 97.1766 50.4737 96.6224C50.1075 96.0695 49.5362 95.6849 48.8868 95.5531Z" fill="#14274A"/>
<path d="M43.4486 109.75L41.449 119.55C41.316 120.201 41.4478 120.878 41.8152 121.431C42.1827 121.985 42.7552 122.369 43.4058 122.5C43.5706 122.534 43.7379 122.55 43.9063 122.55C45.0941 122.549 46.1158 121.713 46.3538 120.551L48.3533 110.75C48.5572 109.866 48.2642 108.94 47.5904 108.334C46.9154 107.726 45.9644 107.532 45.1063 107.826C44.2481 108.12 43.6158 108.856 43.4559 109.75H43.4486Z" fill="#14274A"/>
<path d="M37.4683 139.15L35.9693 146.5C35.6934 147.853 36.5686 149.172 37.9212 149.447C38.086 149.481 38.2532 149.498 38.4217 149.497C39.607 149.496 40.6287 148.66 40.8667 147.498L42.3658 140.148C42.5696 139.263 42.2766 138.337 41.6028 137.731C40.9278 137.124 39.9768 136.93 39.1187 137.224C38.2605 137.518 37.6294 138.254 37.4683 139.148V139.15Z" fill="#14274A"/>
<path d="M39.9608 126.903L39.4616 129.353C39.1857 130.704 40.0585 132.024 41.411 132.3C41.5758 132.334 41.7431 132.35 41.9115 132.35C43.098 132.349 44.121 131.514 44.359 130.35L44.8583 127.9C45.0609 127.015 44.7692 126.09 44.0941 125.483C43.4203 124.876 42.4694 124.681 41.6112 124.976C40.7531 125.27 40.1207 126.007 39.9608 126.899V126.903Z" fill="#14274A"/>
<path d="M100.853 97.5C100.705 96.5954 100.074 95.8435 99.2089 95.5419C98.3434 95.2404 97.3815 95.437 96.704 96.0546C96.0253 96.6711 95.7397 97.6098 95.9582 98.4997L96.4587 100.95C96.6955 102.112 97.7172 102.948 98.9037 102.95C99.071 102.949 99.2394 102.932 99.4042 102.9C100.054 102.769 100.625 102.383 100.991 101.83C101.357 101.277 101.489 100.601 101.356 99.9499L100.853 97.5Z" fill="#14274A"/>
<path d="M103.346 109.75C103.186 108.856 102.555 108.12 101.696 107.826C100.837 107.532 99.8865 107.726 99.2127 108.334C98.5376 108.94 98.2459 109.866 98.4485 110.75L100.449 120.551C100.686 121.713 101.709 122.549 102.897 122.55C103.064 122.55 103.231 122.534 103.396 122.5C104.749 122.224 105.621 120.905 105.347 119.552L103.346 109.75Z" fill="#14274A"/>
<path d="M104.429 140.148L105.929 147.497C106.166 148.66 107.188 149.496 108.374 149.497C108.541 149.498 108.71 149.481 108.873 149.447C110.226 149.171 111.099 147.853 110.824 146.5L109.324 139.15C109.164 138.257 108.532 137.521 107.673 137.226C106.815 136.932 105.864 137.126 105.19 137.733C104.515 138.34 104.224 139.265 104.426 140.15L104.429 140.148Z" fill="#14274A"/>
<path d="M106.834 126.903C106.674 126.01 106.043 125.273 105.183 124.978C104.325 124.684 103.374 124.878 102.7 125.486C102.025 126.093 101.733 127.018 101.936 127.903L102.437 130.353C102.673 131.516 103.696 132.351 104.884 132.352C105.051 132.354 105.22 132.336 105.383 132.302C106.736 132.026 107.609 130.707 107.334 129.356L106.834 126.903Z" fill="#14274A"/>
<path d="M145.906 0H140.906C137.137 0.0109863 133.966 2.82227 133.501 6.5625H91.2708C87.3926 6.56006 83.7329 8.3606 81.3684 11.4355L64.6143 35H63.4058C62.0251 35 60.9058 36.1194 60.9058 37.5V50.7495C53.5022 52.9663 48.4241 59.7717 48.4058 67.5V72.9602C45.4199 74.0161 43.4192 76.8335 43.4058 80V82.5C43.4058 86.6418 46.7639 90 50.9058 90H95.9058C100.049 90 103.406 86.6418 103.406 82.5V80C103.394 76.8335 101.392 74.0161 98.4058 72.9602V67.5C98.3899 59.7705 93.3105 52.9651 85.9058 50.7495V37.5C85.9045 36.8445 85.6445 36.2158 85.1843 35.7495L95.1111 21.5649H133.574C134.312 25.0256 137.368 27.4988 140.906 27.5H145.906C147.286 27.5 148.406 26.3806 148.406 25V2.5C148.406 1.11938 147.286 0 145.906 0ZM65.9058 40H80.9058V50H65.9058V40ZM98.4058 80V82.5C98.4058 83.8806 97.2864 85 95.9058 85H50.9058C49.5251 85 48.4058 83.8806 48.4058 82.5V80C48.4058 78.6194 49.5251 77.5 50.9058 77.5H95.9058C97.2864 77.5 98.4058 78.6194 98.4058 80ZM93.4058 67.5V72.5H53.4058V67.5C53.4143 60.5994 59.0063 55.0085 65.9058 55H80.9058C87.8064 55.0085 93.3984 60.5994 93.4058 67.5ZM133.406 16.5625H95.1111C93.5388 16.5674 92.0593 17.3083 91.1108 18.562L79.6033 35H70.7507L85.3711 14.4275C86.7896 12.6123 88.9673 11.5552 91.2708 11.5625H133.406V16.5625ZM143.406 22.5H140.906C139.525 22.5 138.406 21.3806 138.406 20V7.5C138.406 6.11938 139.525 5 140.906 5H143.406V22.5Z" fill="#14274A"/>
<path d="M118.406 97.5002C118.406 101.642 121.764 105 125.906 105C130.049 105 133.406 101.642 133.406 97.5002C133.406 97.3854 133.367 97.2755 133.362 97.1596C137.402 96.1281 140.377 92.693 140.82 88.5463C141.263 84.3983 139.081 80.4128 135.349 78.5512C131.617 76.6884 127.12 77.3427 124.073 80.1906C121.027 83.0385 120.071 87.4806 121.676 91.3307C119.634 92.7199 118.409 95.0294 118.406 97.5002ZM130.906 82.5002C133.668 82.5002 135.906 84.7389 135.906 87.5002C135.906 90.2614 133.668 92.5002 130.906 92.5002C128.145 92.5002 125.906 90.2614 125.906 87.5002C125.906 84.7389 128.145 82.5002 130.906 82.5002ZM124.729 95.3029C125.8 96.1562 127.035 96.7787 128.358 97.1303C128.384 97.2523 128.4 97.3756 128.406 97.5002C128.406 98.8808 127.286 100 125.906 100C124.525 100 123.406 98.8808 123.406 97.5002C123.416 96.5822 123.922 95.7411 124.729 95.3029Z" fill="#14274A"/>
<path d="M125.906 132.5C125.906 136.642 129.264 140 133.406 140C137.549 140 140.906 136.642 140.906 132.5C140.906 128.358 137.549 125 133.406 125C129.264 125 125.906 128.358 125.906 132.5ZM135.906 132.5C135.906 133.881 134.786 135 133.406 135C132.025 135 130.906 133.881 130.906 132.5C130.906 131.119 132.025 130 133.406 130C134.786 130 135.906 131.119 135.906 132.5Z" fill="#14274A"/>
<path d="M30.9058 60C26.7639 60 23.4058 63.3582 23.4058 67.5C23.4058 71.6418 26.7639 75 30.9058 75C35.0488 75 38.4058 71.6418 38.4058 67.5C38.4058 63.3582 35.0488 60 30.9058 60ZM30.9058 70C29.5251 70 28.4058 68.8806 28.4058 67.5C28.4058 66.1194 29.5251 65 30.9058 65C32.2864 65 33.4058 66.1194 33.4058 67.5C33.4058 68.8806 32.2864 70 30.9058 70Z" fill="#14274A"/>
<path d="M13.4057 80C8.31051 80.0219 4.04659 83.8708 3.5046 88.9367C2.96383 94.0039 6.31832 98.667 11.2939 99.7644C12.2436 102.805 15.0171 104.91 18.2006 105.006C21.3842 105.104 24.2797 103.173 25.4138 100.195C26.5478 97.2192 25.6701 93.8501 23.2287 91.8054C23.789 88.8842 23.0102 85.8667 21.1084 83.5803C19.2065 81.2939 16.3806 79.9804 13.4057 80ZM11.4868 94.6154C9.16988 93.6523 7.92599 91.1218 8.57784 88.6987C9.2297 86.2768 11.5759 84.7119 14.0625 85.0415C16.549 85.3711 18.4069 87.4914 18.4057 90C15.3796 90.0012 12.6501 91.8213 11.4868 94.6154ZM18.4057 100C17.0251 100 15.9057 98.8806 15.9057 97.5C15.9057 96.1193 17.0251 95 18.4057 95C19.7863 95 20.9057 96.1193 20.9057 97.5C20.9057 98.8806 19.7863 100 18.4057 100Z" fill="#14274A"/>
<path d="M18.4058 140C23.9294 140 28.4058 135.522 28.4058 130C28.4058 124.478 23.9294 120 18.4058 120C12.8833 120 8.40576 124.478 8.40576 130C8.40576 135.522 12.8833 140 18.4058 140ZM18.4058 125C21.1682 125 23.4058 127.239 23.4058 130C23.4058 132.761 21.1682 135 18.4058 135C15.6445 135 13.4058 132.761 13.4058 130C13.4058 127.239 15.6445 125 18.4058 125Z" fill="#14274A"/>
</svg>
