<svg width="151" height="150" viewBox="0 0 151 150" fill="none" xmlns="http://www.w3.org/2000/svg">
<g clip-path="url(#clip0)">
<path d="M147.848 109.998C141.945 109.601 136.019 109.685 130.13 110.248V107.041C131.841 106.481 133.286 105.309 134.187 103.749C135.468 101.534 135.444 98.7985 134.127 96.6053C133.061 94.8275 131.892 93.1133 130.627 91.4711C129.884 90.5832 128.786 90.0703 127.628 90.0703C126.47 90.0703 125.371 90.5832 124.628 91.4711C123.364 93.1121 122.196 94.8249 121.128 96.6004C119.811 98.7947 119.788 101.531 121.068 103.747C121.97 105.308 123.417 106.481 125.13 107.042V110.791C113.209 112.133 101.701 115.957 91.3468 122.017C82.8362 120.432 74.5511 117.814 66.6747 114.221C71.9906 112.166 77.0897 109.589 81.8979 106.529L82.1478 106.374C82.4328 106.202 82.7228 106.024 82.9452 105.874C118.271 82.797 146.153 85.0019 147.328 85.1167C148.703 85.2409 149.918 84.2271 150.043 82.852C150.167 81.477 149.153 80.2616 147.778 80.1374C146.935 80.0598 133.012 78.9575 112.632 85.7943V79.7124C115.959 78.9821 118.832 76.8987 120.561 73.9629C122.991 69.8908 123.125 64.8468 120.913 60.652C118.883 56.8675 116.642 53.1997 114.202 49.6657C113.293 48.3077 111.766 47.4924 110.132 47.4924C108.498 47.4924 106.972 48.3077 106.063 49.6657C103.622 53.1997 101.381 56.8675 99.351 60.652C97.1396 64.8468 97.2729 69.8908 99.7034 73.9629C101.432 76.8987 104.305 78.9818 107.633 79.7124V87.5914C104.285 88.8713 100.798 90.3562 97.1862 92.0909C93.4486 85.9404 86.6889 82.2791 79.4956 82.509C72.3022 82.739 65.79 86.8242 62.4526 93.2008C56.8584 90.205 51.0753 87.5762 45.1396 85.3317V78.56C47.5328 77.8601 49.5731 76.2815 50.8515 74.1404C53.0172 70.6024 53.2199 66.2016 51.389 62.4793C49.8438 59.3806 48.1339 56.3666 46.2671 53.4504C45.4972 52.1782 44.1184 51.4008 42.6312 51.4008C41.1439 51.4008 39.7651 52.1782 38.9952 53.4504C37.1334 56.3663 35.4293 59.3803 33.8909 62.4793C32.0629 66.2034 32.2695 70.6041 34.4383 74.1404C35.7144 76.2795 37.7506 77.8578 40.1403 78.56V83.5595C34.4228 81.6381 28.5753 80.1277 22.6424 79.0401V76.2528C24.1675 75.6666 25.4599 74.5995 26.3246 73.213C27.9211 70.6109 28.0737 67.3725 26.7295 64.6315C25.6857 62.5361 24.5301 60.4985 23.2673 58.5273C22.559 57.4994 21.3907 56.8857 20.1425 56.8857C18.8943 56.8857 17.7261 57.4994 17.0178 58.5273C15.7555 60.497 14.5999 62.5332 13.5556 64.6265C12.2113 67.3684 12.3642 70.6073 13.9604 73.2104C14.8246 74.5977 16.117 75.6655 17.6426 76.2525V78.2524C12.6785 77.5262 7.65618 77.2751 2.64435 77.5025C1.75119 77.5678 0.960854 78.1044 0.570665 78.9103C0.180476 79.7165 0.250194 80.6691 0.753164 81.4099C1.25613 82.1508 2.11619 82.567 3.00935 82.5017C5.80659 82.2993 31.311 81.0493 63.9023 99.6747C67.4091 101.673 71.0499 103.428 74.7986 104.924C70.6416 107.206 66.2921 109.118 61.8002 110.638C59.2532 106.319 56.6209 102.474 54.7335 99.8546C53.6763 98.3782 51.9723 97.5026 50.1564 97.5026C48.3408 97.5026 46.6365 98.3785 45.5793 99.8546C44.9219 100.769 44.1644 101.854 43.3594 103.029C30.2139 98.4983 16.3004 96.6188 2.42406 97.4997C1.53091 97.5782 0.747598 98.1274 0.369126 98.94C-0.00934631 99.7526 0.0744331 100.706 0.58912 101.44C1.10381 102.174 1.97089 102.578 2.86405 102.499C15.607 101.745 28.3784 103.382 40.5197 107.323C39.3799 109.128 38.2125 111.073 37.0926 113.073C34.4175 117.821 34.4861 123.637 37.2725 128.321C39.5111 132.176 43.3676 134.818 47.7713 135.512V142.869C41.3838 144.207 34.8772 144.895 28.3512 144.921L2.64406 144.994C1.26346 144.994 0.144445 146.113 0.144445 147.493C0.144445 148.874 1.26346 149.993 2.64406 149.993L28.3585 149.921C35.6892 149.893 42.995 149.071 50.1484 147.469C50.1886 147.469 50.2234 147.493 50.2659 147.493C50.6526 147.487 51.0322 147.388 51.3732 147.206C59.3996 145.339 67.1466 142.427 74.4155 138.545C80.0662 135.474 85.528 132.067 90.7712 128.343C91.5437 127.781 92.341 127.266 93.1786 126.748C115.531 112.383 147.085 114.96 147.4 115C148.781 115.123 150.001 114.104 150.125 112.722C150.248 111.341 149.229 110.122 147.848 109.998ZM103.985 71.4003C102.432 68.8377 102.351 65.645 103.77 63.0063C105.992 58.8094 108.485 54.9822 110.082 52.5075C112.412 55.8853 114.553 59.3903 116.494 63.0063C117.913 65.645 117.832 68.8377 116.279 71.4003C115.033 73.6258 112.682 75.004 110.132 75.004C107.582 75.004 105.231 73.6258 103.985 71.4003ZM22.0797 70.5681C21.6884 71.2808 20.9545 71.7393 20.1425 71.7779C19.3302 71.739 18.5967 71.2808 18.2054 70.5681C17.5155 69.4333 17.4534 68.0248 18.0404 66.8335C18.7329 65.4335 19.4752 64.1062 20.1428 62.984C20.8101 64.1062 21.5527 65.4338 22.2452 66.8361C22.8317 68.0263 22.7696 69.4341 22.0797 70.5681ZM38.6727 71.5029C37.4102 69.435 37.2942 66.8645 38.3651 64.6912C39.8125 61.754 41.4049 59.042 42.6396 57.0597C43.8747 59.042 45.4668 61.7543 46.9142 64.6912C47.9854 66.8645 47.8694 69.435 46.6066 71.5029C45.8344 72.9792 44.3059 73.9046 42.6396 73.9046C40.9734 73.9049 39.4452 72.9792 38.6727 71.5029ZM66.8472 95.5827C69.4271 90.6254 74.547 87.5112 80.1356 87.5012C85.2198 87.4962 89.9586 90.0741 92.7166 94.3453C88.692 96.4577 84.5425 98.8674 80.2906 101.639C75.6367 100.028 71.1375 98.0006 66.8472 95.5827ZM50.1391 130.713C46.6116 130.713 43.3509 128.834 41.5824 125.782V125.789C39.7009 122.631 39.6552 118.707 41.4623 115.506C43.9391 111.111 46.6625 106.861 49.6188 102.775C49.7363 102.603 49.9308 102.5 50.1388 102.5C50.3468 102.5 50.5413 102.603 50.6587 102.775C53.615 106.859 56.3382 111.107 58.8152 115.498C60.6226 118.7 60.5766 122.624 58.6951 125.782C56.927 128.834 53.6666 130.713 50.1391 130.713ZM72.0538 134.143C65.9432 137.403 59.4726 139.937 52.7734 141.695V135.463C57.069 134.707 60.8127 132.094 63.0048 128.324C64.6745 125.504 65.3916 122.221 65.0495 118.962C71.632 121.905 78.4729 124.231 85.4846 125.912C81.1524 128.884 76.6693 131.632 72.0538 134.143ZM127.63 102.425C126.749 102.425 125.922 101.996 125.415 101.274C125.025 100.617 125.034 99.7966 125.438 99.1471C126.158 97.9297 126.938 96.7749 127.63 95.815C128.32 96.7749 129.102 97.9297 129.822 99.1495C130.226 99.798 130.234 100.617 129.845 101.274C129.338 101.996 128.511 102.425 127.63 102.425Z" fill="#14274A"/>
<path d="M38.8903 40.0063H45.2672C45.8804 44.2999 49.5514 47.4931 53.8886 47.5054H76.386C81.0229 47.5046 84.8539 43.8865 85.1193 39.2573C85.3847 34.628 81.9925 30.5958 77.3861 30.065C76.2149 24.2262 71.0927 20.0208 65.1376 20.0085C63.9911 20.022 62.8518 20.1954 61.753 20.5235C59.7693 15.3306 54.5864 12.079 49.0476 12.553C43.5088 13.027 38.9536 17.1114 37.8806 22.5658C33.2721 23.0966 29.8794 27.1321 30.1474 31.7631C30.4154 36.3941 34.2514 40.011 38.8903 40.0063ZM65.1373 25.008C69.2788 25.008 72.6364 28.3657 72.6364 32.5072C72.6364 33.8878 73.7555 35.0068 75.1361 35.0068H76.386C78.4568 35.0068 80.1356 36.6856 80.1356 38.7564C80.1409 39.7523 79.7477 40.7093 79.0432 41.4136C78.339 42.1178 77.382 42.5112 76.386 42.5059H53.8886C51.8179 42.5059 50.139 40.8271 50.139 38.7564C50.139 36.6856 51.8179 35.0068 53.8886 35.0068H55.1386C56.5192 35.0068 57.6382 33.8878 57.6382 32.5072C57.6382 28.3657 60.9955 25.008 65.1373 25.008ZM36.2331 28.6C36.9373 27.8958 37.8944 27.5024 38.8903 27.5076H40.1403C41.5209 27.5076 42.6399 26.3883 42.6399 25.008C42.6446 21.3027 45.3551 18.156 49.0189 17.6026C52.6826 17.0493 56.2016 19.2548 57.3007 22.7934C55.0252 24.6269 53.4641 27.2001 52.8888 30.065C49.8845 30.3837 47.2706 32.2614 46.0095 35.0068H38.8903C36.8196 35.0068 35.1408 33.328 35.1408 31.2572C35.1352 30.2612 35.5286 29.3045 36.2331 28.6Z" fill="#14274A"/>
<path d="M103.883 27.5077H126.38C131.017 27.5068 134.848 23.8888 135.113 19.2595C135.379 14.6303 131.987 10.598 127.38 10.0672C126.217 4.21851 121.085 0.00610352 115.122 0.00610352C109.159 0.00610352 104.026 4.21851 102.863 10.0672C98.2531 10.5983 94.8594 14.6367 95.1304 19.2695C95.4011 23.9026 99.242 27.5177 103.883 27.5077ZM101.225 16.1017C101.93 15.3972 102.886 15.0038 103.883 15.0094H105.133C106.513 15.0094 107.632 13.8903 107.632 12.5097C107.632 8.36823 110.99 5.0106 115.131 5.0106C119.273 5.0106 122.631 8.36823 122.631 12.5097C122.631 13.8903 123.75 15.0094 125.13 15.0094H126.38C127.72 15.0094 128.958 15.7241 129.627 16.8841C130.297 18.0442 130.297 19.4737 129.627 20.6337C128.958 21.7937 127.72 22.5085 126.38 22.5085H103.883C102.362 22.5132 100.99 21.5995 100.408 20.1955C99.8253 18.7911 100.148 17.1741 101.225 16.1017Z" fill="#14274A"/>
</g>
<defs>
<clipPath id="clip0">
<rect width="150" height="150" fill="white" transform="translate(0.13501)"/>
</clipPath>
</defs>
</svg>
