<svg width="151" height="150" viewBox="0 0 151 150" fill="none" xmlns="http://www.w3.org/2000/svg">
<path d="M35.9263 52.7341H40.3208V101.66H35.9263V52.7341Z" fill="#14274A"/>
<path d="M140.108 0H46.0023L35.9263 10.0764V48.3396H40.3208V39.5505H145.79V136.816H126.014V141.211H142.682L138.288 145.605H57.8986V150H140.108L150.184 139.924V10.0764L140.108 0ZM47.8226 4.39453H138.288L142.682 8.78906H43.428L47.8226 4.39453ZM40.3208 35.156V13.1836H145.79V35.156H40.3208Z" fill="#14274A"/>
<path d="M54.2368 92.5778C54.2368 113.982 71.6506 131.396 93.0552 131.396C114.46 131.396 131.873 113.982 131.873 92.5778C131.873 71.1732 114.46 53.7598 93.0552 53.7598C71.6506 53.7598 54.2368 71.1732 54.2368 92.5778ZM127.479 92.5778C127.479 111.559 112.036 127.002 93.0552 127.002C74.0737 127.002 58.6313 111.559 58.6313 92.5778C58.6313 73.5964 74.0737 58.1543 93.0552 58.1543C112.036 58.1543 127.479 73.5964 127.479 92.5778Z" fill="#14274A"/>
<path d="M63.0112 92.5778C63.0112 109.144 76.489 122.622 93.0552 122.622C100.203 122.622 107.129 120.068 112.558 115.431L109.703 112.09C105.07 116.048 99.1571 118.227 93.0552 118.227C78.9121 118.227 67.4058 106.721 67.4058 92.5778C67.4058 91.8375 67.4392 91.1051 67.501 90.3806H87.7507L96.5395 99.1696H117.84C116.861 102.85 115.071 106.294 112.567 109.226L115.909 112.08C120.545 106.652 123.099 99.726 123.099 92.5778C123.099 76.0116 109.621 62.5342 93.0552 62.5342C76.489 62.5342 63.0112 76.0116 63.0112 92.5778ZM117.844 85.9863H102.979V90.3809H118.609C118.671 91.1054 118.704 91.8378 118.704 92.5781C118.704 93.3141 118.671 94.0471 118.608 94.7754H98.3594L89.5706 85.9863H68.2659C71.1827 75.0272 81.1902 66.9287 93.0552 66.9287C104.92 66.9287 114.927 75.0272 117.844 85.9863Z" fill="#14274A"/>
<path d="M134.803 17.5781C131.169 17.5781 128.211 20.5351 128.211 24.1699C128.211 27.8048 131.169 30.7617 134.803 30.7617C138.438 30.7617 141.395 27.8045 141.395 24.1699C141.395 20.5354 138.438 17.5781 134.803 17.5781ZM134.803 26.3672C133.592 26.3672 132.606 25.3816 132.606 24.1699C132.606 22.9582 133.592 21.9727 134.803 21.9727C136.015 21.9727 137 22.9582 137 24.1699C137 25.3816 136.015 26.3672 134.803 26.3672Z" fill="#14274A"/>
<path d="M117.225 17.5781C113.591 17.5781 110.634 20.5351 110.634 24.1699C110.634 27.8048 113.591 30.7617 117.225 30.7617C120.86 30.7617 123.817 27.8048 123.817 24.1699C123.817 20.5351 120.86 17.5781 117.225 17.5781ZM117.225 26.3672C116.014 26.3672 115.028 25.3816 115.028 24.1699C115.028 22.9582 116.014 21.9727 117.225 21.9727C118.437 21.9727 119.423 22.9582 119.423 24.1699C119.423 25.3816 118.437 26.3672 117.225 26.3672Z" fill="#14274A"/>
<path d="M99.6475 17.5781C96.0129 17.5781 93.0557 20.5351 93.0557 24.1699C93.0557 27.8048 96.0129 30.7617 99.6475 30.7617C103.282 30.7617 106.239 27.8048 106.239 24.1699C106.239 20.5351 103.282 17.5781 99.6475 17.5781ZM99.6475 26.3672C98.4357 26.3672 97.4502 25.3816 97.4502 24.1699C97.4502 22.9582 98.4357 21.9727 99.6475 21.9727C100.859 21.9727 101.845 22.9582 101.845 24.1699C101.845 25.3816 100.859 26.3672 99.6475 26.3672Z" fill="#14274A"/>
<path d="M44.7153 30.7617H75.4768V17.5781H44.7153V30.7617ZM49.1099 21.9727H71.0822V26.3672H49.1099V21.9727Z" fill="#14274A"/>
<path d="M5.86592 106.055L0.184082 111.736V117.951L3.66836 121.436L0.184082 124.92V131.135L3.66836 134.619L0.184082 138.103V144.318L5.86592 150H47.8226L53.5044 144.318V138.103L50.0198 134.619L53.5044 131.135V124.92L50.0198 121.436L53.5044 117.951V111.736L47.8226 106.055H5.86592ZM49.1099 142.498L46.0023 145.605H7.68584L4.57861 142.498V139.924L7.68584 136.816H15.5649V132.422H7.68584L4.57861 129.315V126.74L7.68584 123.633H46.0023L49.1099 126.74V129.315L46.0023 132.422H19.9595V136.816H46.0026L49.1099 139.924V142.498ZM49.1099 116.131L46.0023 119.238H7.68584L4.57861 116.131V113.556L7.68584 110.449H46.0023L49.1099 113.556V116.131Z" fill="#14274A"/>
<path d="M66.6877 139.013H71.0823V143.408H66.6877V139.013Z" fill="#14274A"/>
<path d="M115.028 43.9451H119.423V48.3396H115.028V43.9451Z" fill="#14274A"/>
<path d="M57.8987 139.013H62.2932V143.408H57.8987V139.013Z" fill="#14274A"/>
<path d="M123.817 43.9451H141.395V48.3396H123.817V43.9451Z" fill="#14274A"/>
</svg>
