<svg width="151" height="150" viewBox="0 0 151 150" fill="none" xmlns="http://www.w3.org/2000/svg">
<g clip-path="url(#clip0)">
<path d="M148.342 30H103.342C101.961 30 100.842 31.1194 100.842 32.5V90H45.842V82.5C45.842 81.1194 44.7227 80 43.342 80H35.842V85H40.842V90H30.842V80H25.842V90H15.842V85H20.842V80H13.342C11.9614 80 10.842 81.1194 10.842 82.5V90H3.34204C1.96143 90 0.842041 91.1194 0.842041 92.5V147.5C0.842041 148.881 1.96143 150 3.34204 150H148.342C149.723 150 150.842 148.881 150.842 147.5V32.5C150.842 31.1194 149.723 30 148.342 30ZM105.842 35H145.842V65H105.842V35ZM100.842 105H55.842V95H100.842V105ZM5.84204 95H50.842V105H5.84204V95ZM5.84204 110H50.842V145H5.84204V110ZM55.842 110H75.842V145H55.842V110ZM80.842 110H100.842V145H80.842V110ZM105.842 145V70H145.842V145H105.842Z" fill="#14274A"/>
<path d="M110.842 45H115.842V55H110.842V45Z" fill="#14274A"/>
<path d="M110.842 80H115.842V90H110.842V80Z" fill="#14274A"/>
<path d="M15.842 100C15.842 101.381 14.7227 102.5 13.342 102.5C11.9614 102.5 10.842 101.381 10.842 100C10.842 98.6194 11.9614 97.5 13.342 97.5C14.7227 97.5 15.842 98.6194 15.842 100Z" fill="#14274A"/>
<path d="M25.842 100C25.842 101.381 24.7227 102.5 23.342 102.5C21.9614 102.5 20.842 101.381 20.842 100C20.842 98.6194 21.9614 97.5 23.342 97.5C24.7227 97.5 25.842 98.6194 25.842 100Z" fill="#14274A"/>
<path d="M35.842 100C35.842 101.381 34.7227 102.5 33.342 102.5C31.9614 102.5 30.842 101.381 30.842 100C30.842 98.6194 31.9614 97.5 33.342 97.5C34.7227 97.5 35.842 98.6194 35.842 100Z" fill="#14274A"/>
<path d="M45.842 100C45.842 101.381 44.7227 102.5 43.342 102.5C41.9614 102.5 40.842 101.381 40.842 100C40.842 98.6194 41.9614 97.5 43.342 97.5C44.7227 97.5 45.842 98.6194 45.842 100Z" fill="#14274A"/>
<path d="M3.34204 47.5H53.342C54.7227 47.5 55.842 46.3806 55.842 45V37.5C55.842 36.8372 55.5784 36.2012 55.1096 35.7324L45.1096 25.7324C44.6409 25.2637 44.0049 25 43.342 25H40.842V2.5C40.842 1.11938 39.7227 0 38.342 0H18.342C16.9614 0 15.842 1.11938 15.842 2.5V25H13.342C12.6792 25 12.0432 25.2637 11.5745 25.7324L1.57446 35.7324C1.10571 36.2012 0.842041 36.8372 0.842041 37.5V45C0.842041 46.3806 1.96143 47.5 3.34204 47.5ZM20.842 5H35.842V25H20.842V5ZM5.84204 38.5352L14.3772 30H42.3069L50.842 38.5352V42.5H5.84204V38.5352Z" fill="#14274A"/>
<path d="M43.342 115H13.342C11.9614 115 10.842 116.119 10.842 117.5V137.5C10.842 138.881 11.9614 140 13.342 140H43.342C44.7227 140 45.842 138.881 45.842 137.5V117.5C45.842 116.119 44.7227 115 43.342 115ZM40.842 135H15.842V120H40.842V135Z" fill="#14274A"/>
<path d="M73.342 97.5H83.342V102.5H73.342V97.5Z" fill="#14274A"/>
<path d="M65.842 122.5H70.842V132.5H65.842V122.5Z" fill="#14274A"/>
<path d="M60.842 62.5H75.842C77.2227 62.5 78.342 61.3806 78.342 60V57.5C78.325 52.9541 75.2439 48.9917 70.842 47.8552V0H65.842V47.8552C61.4402 48.9917 58.3591 52.9541 58.342 57.5V60C58.342 61.3806 59.4614 62.5 60.842 62.5ZM68.342 52.5C71.1033 52.5 73.342 54.7388 73.342 57.5H63.342C63.342 54.7388 65.5808 52.5 68.342 52.5Z" fill="#14274A"/>
<path d="M78.342 42.5H93.342C94.7227 42.5 95.842 41.3806 95.842 40V37.5C95.825 32.9541 92.7439 28.9917 88.342 27.8552V0H83.342V27.8552C78.9402 28.9917 75.8591 32.9541 75.842 37.5V40C75.842 41.3806 76.9614 42.5 78.342 42.5ZM85.842 32.5C88.6033 32.5 90.842 34.7388 90.842 37.5H80.842C80.842 34.7388 83.0808 32.5 85.842 32.5Z" fill="#14274A"/>
</g>
<defs>
<clipPath id="clip0">
<rect width="150" height="150" fill="white" transform="translate(0.842041)"/>
</clipPath>
</defs>
</svg>
