<svg width="29" height="26" viewBox="0 0 29 26" fill="none" xmlns="http://www.w3.org/2000/svg">
<path d="M13.0334 0.00830078H15.3668V2.34163H13.0334V0.00830078Z" fill="white"/>
<path d="M20.0337 0.00830078H22.367V2.34163H20.0337V0.00830078Z" fill="white"/>
<path d="M6.03345 0.00830078H8.36678V2.34163H6.03345V0.00830078Z" fill="white"/>
<path d="M27.0335 2.3418H22.3669V5.8418H20.0335V2.3418H15.3669V5.8418H13.0335V2.3418H8.36686V5.8418H6.03353V2.3418H1.36686C1.05744 2.3418 0.760696 2.46471 0.541904 2.68351C0.323112 2.9023 0.200195 3.19904 0.200195 3.50846L0.200195 24.5085C0.200195 24.8179 0.323112 25.1146 0.541904 25.3334C0.760696 25.5522 1.05744 25.6751 1.36686 25.6751H27.0335C27.3429 25.6751 27.6397 25.5522 27.8585 25.3334C28.0773 25.1146 28.2002 24.8179 28.2002 24.5085V3.50846C28.2002 3.19904 28.0773 2.9023 27.8585 2.68351C27.6397 2.46471 27.3429 2.3418 27.0335 2.3418ZM21.6889 17.2912L20.0335 16.1085V21.0085C20.0335 21.3179 19.9106 21.6146 19.6918 21.8334C19.473 22.0522 19.1763 22.1751 18.8669 22.1751H15.9502V17.5085C15.9502 17.199 15.8273 16.9023 15.6085 16.6835C15.3897 16.4647 15.0929 16.3418 14.7835 16.3418H13.6169C13.3074 16.3418 13.0107 16.4647 12.7919 16.6835C12.5731 16.9023 12.4502 17.199 12.4502 17.5085V22.1751H9.53353C9.22411 22.1751 8.92736 22.0522 8.70857 21.8334C8.48978 21.6146 8.36686 21.3179 8.36686 21.0085V16.1085L6.71165 17.2912L5.3554 15.3924L13.5221 9.55909C13.7208 9.41978 13.9575 9.34505 14.2002 9.34505C14.4429 9.34505 14.6796 9.41978 14.8783 9.55909L23.045 15.3924L21.6889 17.2912Z" fill="white"/>
</svg>
