<svg width="1440" height="1294" viewBox="0 0 1440 1294" fill="none" xmlns="http://www.w3.org/2000/svg">
<path d="M158.144 466.2L150.872 483H147.032L139.784 466.2H143.984L149.096 478.2L154.28 466.2H158.144ZM159.517 470.088H163.261V483H159.517V470.088ZM161.389 468.288C160.701 468.288 160.141 468.088 159.709 467.688C159.277 467.288 159.061 466.792 159.061 466.2C159.061 465.608 159.277 465.112 159.709 464.712C160.141 464.312 160.701 464.112 161.389 464.112C162.077 464.112 162.637 464.304 163.069 464.688C163.501 465.072 163.717 465.552 163.717 466.128C163.717 466.752 163.501 467.272 163.069 467.688C162.637 468.088 162.077 468.288 161.389 468.288ZM179.384 476.592C179.384 476.64 179.36 476.976 179.312 477.6H169.544C169.72 478.4 170.136 479.032 170.792 479.496C171.448 479.96 172.264 480.192 173.24 480.192C173.912 480.192 174.504 480.096 175.016 479.904C175.544 479.696 176.032 479.376 176.48 478.944L178.472 481.104C177.256 482.496 175.48 483.192 173.144 483.192C171.688 483.192 170.4 482.912 169.28 482.352C168.16 481.776 167.296 480.984 166.688 479.976C166.08 478.968 165.776 477.824 165.776 476.544C165.776 475.28 166.072 474.144 166.664 473.136C167.272 472.112 168.096 471.32 169.136 470.76C170.192 470.184 171.368 469.896 172.664 469.896C173.928 469.896 175.072 470.168 176.096 470.712C177.12 471.256 177.92 472.04 178.496 473.064C179.088 474.072 179.384 475.248 179.384 476.592ZM172.688 472.728C171.84 472.728 171.128 472.968 170.552 473.448C169.976 473.928 169.624 474.584 169.496 475.416H175.856C175.728 474.6 175.376 473.952 174.8 473.472C174.224 472.976 173.52 472.728 172.688 472.728ZM202.378 470.088L197.698 483H194.098L191.194 474.984L188.194 483H184.594L179.938 470.088H183.466L186.514 478.824L189.682 470.088H192.85L195.922 478.824L199.066 470.088H202.378ZM227.452 469.896C229.068 469.896 230.348 470.376 231.292 471.336C232.252 472.28 232.732 473.704 232.732 475.608V483H228.988V476.184C228.988 475.16 228.772 474.4 228.34 473.904C227.924 473.392 227.324 473.136 226.54 473.136C225.66 473.136 224.964 473.424 224.452 474C223.94 474.56 223.684 475.4 223.684 476.52V483H219.94V476.184C219.94 474.152 219.124 473.136 217.492 473.136C216.628 473.136 215.94 473.424 215.428 474C214.916 474.56 214.66 475.4 214.66 476.52V483H210.916V470.088H214.492V471.576C214.972 471.032 215.556 470.616 216.243 470.328C216.948 470.04 217.716 469.896 218.548 469.896C219.46 469.896 220.284 470.08 221.02 470.448C221.756 470.8 222.348 471.32 222.796 472.008C223.324 471.336 223.988 470.816 224.788 470.448C225.604 470.08 226.492 469.896 227.452 469.896ZM241.295 469.896C243.295 469.896 244.831 470.376 245.903 471.336C246.975 472.28 247.511 473.712 247.511 475.632V483H244.007V481.392C243.303 482.592 241.991 483.192 240.071 483.192C239.079 483.192 238.215 483.024 237.479 482.688C236.759 482.352 236.207 481.888 235.823 481.296C235.439 480.704 235.247 480.032 235.247 479.28C235.247 478.08 235.695 477.136 236.591 476.448C237.503 475.76 238.903 475.416 240.791 475.416H243.767C243.767 474.6 243.519 473.976 243.023 473.544C242.527 473.096 241.783 472.872 240.791 472.872C240.103 472.872 239.423 472.984 238.751 473.208C238.095 473.416 237.535 473.704 237.071 474.072L235.727 471.456C236.431 470.96 237.271 470.576 238.247 470.304C239.239 470.032 240.255 469.896 241.295 469.896ZM241.007 480.672C241.647 480.672 242.215 480.528 242.711 480.24C243.207 479.936 243.559 479.496 243.767 478.92V477.6H241.199C239.663 477.6 238.895 478.104 238.895 479.112C238.895 479.592 239.079 479.976 239.447 480.264C239.831 480.536 240.351 480.672 241.007 480.672ZM258.532 469.896C259.732 469.896 260.82 470.176 261.796 470.736C262.788 471.28 263.564 472.056 264.124 473.064C264.684 474.056 264.964 475.216 264.964 476.544C264.964 477.872 264.684 479.04 264.124 480.048C263.564 481.04 262.788 481.816 261.796 482.376C260.82 482.92 259.732 483.192 258.532 483.192C256.884 483.192 255.588 482.672 254.644 481.632V487.656H250.9V470.088H254.476V471.576C255.404 470.456 256.756 469.896 258.532 469.896ZM257.884 480.12C258.844 480.12 259.628 479.8 260.236 479.16C260.86 478.504 261.172 477.632 261.172 476.544C261.172 475.456 260.86 474.592 260.236 473.952C259.628 473.296 258.844 472.968 257.884 472.968C256.924 472.968 256.132 473.296 255.508 473.952C254.9 474.592 254.596 475.456 254.596 476.544C254.596 477.632 254.9 478.504 255.508 479.16C256.132 479.8 256.924 480.12 257.884 480.12Z" fill="#14274A"/>
<rect width="1441" height="1294" fill="#E0B973" fill-opacity="0.25"/>
<path d="M393.756 474.043C394.732 473.066 394.732 471.483 393.756 470.507L377.846 454.597C376.87 453.621 375.287 453.621 374.311 454.597C373.334 455.574 373.334 457.156 374.311 458.133L388.453 472.275L374.311 486.417C373.334 487.393 373.334 488.976 374.311 489.953C375.287 490.929 376.87 490.929 377.846 489.953L393.756 474.043ZM329.185 474.775H391.988V469.775H329.185V474.775Z" fill="#14274A"/>
</svg>
