<svg width="125" height="39" viewBox="0 0 125 39" fill="none" xmlns="http://www.w3.org/2000/svg">
<path d="M4.563 35.1553C4.941 35.1553 4.941 35.1643 4.941 35.4163V36.7123C4.941 37.5493 4.896 37.6393 4.482 37.6933L4.284 37.7203C4.212 37.7743 4.212 37.9813 4.284 38.0353C4.716 38.0173 5.157 38.0083 5.607 38.0083C6.021 38.0083 6.462 38.0173 6.912 38.0353C6.984 37.9813 6.984 37.7743 6.912 37.7203L6.696 37.6843C6.282 37.6123 6.228 37.5493 6.228 36.7123V33.3643C6.228 32.5273 6.282 32.4463 6.696 32.3833L6.876 32.3563C6.948 32.3023 6.948 32.0953 6.876 32.0413C6.462 32.0593 6.048 32.0683 5.607 32.0683C5.175 32.0683 4.734 32.0593 4.239 32.0413C4.167 32.0953 4.167 32.3023 4.239 32.3563L4.482 32.3923C4.896 32.4553 4.941 32.5273 4.941 33.3643V34.4083C4.941 34.6693 4.941 34.6783 4.563 34.6783H2.691C2.322 34.6783 2.313 34.6693 2.313 34.4083V33.3643C2.313 32.5273 2.367 32.4373 2.754 32.3833L2.943 32.3563C3.015 32.3023 3.015 32.0953 2.943 32.0413C2.547 32.0593 2.097 32.0683 1.692 32.0683C1.26 32.0683 0.792 32.0593 0.351 32.0413C0.279 32.0953 0.279 32.3023 0.351 32.3563L0.567 32.3833C0.981 32.4373 1.026 32.5273 1.026 33.3643V36.7123C1.026 37.5493 0.981 37.6393 0.567 37.6933L0.351 37.7203C0.279 37.7743 0.279 37.9813 0.351 38.0353C0.81 38.0173 1.26 38.0083 1.692 38.0083C2.097 38.0083 2.547 38.0173 3.06 38.0353C3.132 37.9813 3.132 37.7743 3.06 37.7203L2.772 37.6843C2.367 37.6303 2.313 37.5493 2.313 36.7123V35.4163C2.313 35.1643 2.322 35.1553 2.691 35.1553H4.563ZM16.224 31.9243C14.343 31.9243 13.011 33.3013 13.011 35.0833C13.011 36.9643 14.325 38.1523 16.134 38.1523C18.069 38.1523 19.383 36.9733 19.383 35.0113C19.383 33.1843 18.096 31.9243 16.224 31.9243ZM17.943 35.1283C17.943 36.5863 17.484 37.7383 16.305 37.7383C14.838 37.7383 14.451 35.9743 14.451 34.8763C14.451 33.3733 15.045 32.3383 16.152 32.3383C17.268 32.3383 17.943 33.5893 17.943 35.1283ZM29.4367 36.3253C29.4367 35.3353 28.7257 34.8133 28.1677 34.5163L27.5737 34.2013C27.1237 33.9673 26.7547 33.5893 26.7547 33.1753C26.7547 32.7253 27.0787 32.3383 27.6727 32.3383C28.3207 32.3383 28.7077 32.9953 28.8607 33.4543C28.9417 33.5443 29.1667 33.5353 29.2117 33.4273C29.2117 32.8243 29.1217 32.3383 29.0497 32.1403C28.9417 32.1223 28.8607 32.1043 28.7437 32.0683C28.3837 31.9603 28.0147 31.9243 27.7177 31.9243C26.4127 31.9243 25.6207 32.6263 25.6297 33.6433C25.6297 34.5343 26.3407 35.0743 26.9887 35.3983C27.5287 35.6683 28.2127 36.1003 28.2127 36.8293C28.2127 37.2793 27.9067 37.7383 27.2407 37.7383C26.4757 37.7383 25.8727 36.9103 25.6927 36.3253C25.6207 36.2263 25.4137 36.2353 25.3507 36.3523C25.3507 36.9643 25.4677 37.6123 25.6387 37.8103C25.8277 37.9183 26.3407 38.1523 27.1687 38.1523C28.5277 38.1523 29.4367 37.4323 29.4367 36.3253ZM37.3915 36.7123C37.3915 37.5493 37.3375 37.6303 36.9325 37.6753L36.5275 37.7203C36.4555 37.7743 36.4555 37.9813 36.5275 38.0353C37.1575 38.0173 37.6255 38.0083 38.0575 38.0083C38.4625 38.0083 38.9125 38.0173 39.4975 38.0353C39.5605 37.9813 39.5605 37.7743 39.4975 37.7203L39.1375 37.6753C38.7325 37.6213 38.6785 37.5493 38.6785 36.7123V32.7433C38.6785 32.5093 38.7055 32.4823 38.9215 32.4823H39.4615C40.1365 32.4823 40.2625 32.9053 40.4155 33.4813C40.4605 33.5533 40.7035 33.5353 40.7485 33.4543C40.7305 32.9413 40.7935 32.2123 40.8835 31.9063C40.8655 31.8793 40.8025 31.8433 40.7485 31.8433C40.6945 31.8433 40.6675 31.8523 40.6315 31.8703C40.5505 32.0593 40.4155 32.0683 39.8215 32.0683H36.4735C35.7895 32.0683 35.7625 32.0323 35.7175 31.8793C35.6815 31.8523 35.6365 31.8433 35.5915 31.8433C35.5465 31.8433 35.5015 31.8613 35.4655 31.8883C35.4025 32.2393 35.3575 32.7973 35.1685 33.4183C35.2225 33.5353 35.3935 33.5533 35.5015 33.4993C35.7715 32.8423 35.9605 32.4823 36.6175 32.4823H37.1755C37.3915 32.4823 37.3915 32.5273 37.3915 32.7433V36.7123ZM48.6103 32.8333C48.6103 32.5003 48.6103 32.4823 48.9073 32.4823H49.6273C50.0683 32.4823 50.3383 32.5903 50.5093 32.7613C50.6263 32.8873 50.7523 33.1573 50.8513 33.4723C50.9413 33.5533 51.1483 33.5353 51.1843 33.4363C51.1393 32.8333 51.0763 32.1853 51.0673 32.0413C50.9503 32.0593 50.4373 32.0683 49.8613 32.0683H47.9533C47.5213 32.0683 47.0803 32.0593 46.6573 32.0413C46.5673 32.0953 46.5583 32.3023 46.6393 32.3563L46.8643 32.4013C47.2693 32.4823 47.3233 32.5363 47.3233 33.3553V36.7123C47.3233 37.5403 47.2693 37.5943 46.8643 37.6573L46.4413 37.7203C46.3693 37.7653 46.3693 37.9813 46.4413 38.0353C47.1163 38.0173 47.5573 38.0083 47.9893 38.0083H49.1593C49.8973 38.0083 50.7613 38.0173 51.2383 38.0353C51.3643 37.7923 51.5803 37.0633 51.6163 36.5953C51.5803 36.4873 51.3553 36.4513 51.2833 36.5503C50.7883 37.5673 50.4823 37.5943 49.6993 37.5943C49.0423 37.5943 48.8713 37.5223 48.7543 37.3603C48.6463 37.2073 48.6103 36.9193 48.6103 36.5053V35.4343C48.6103 35.1643 48.6193 35.1553 48.8623 35.1553H49.4833C49.9513 35.1553 50.0593 35.2273 50.1493 35.6593L50.1943 35.8843C50.2573 35.9653 50.4823 35.9563 50.5273 35.8753C50.5093 35.5873 50.5003 35.2633 50.5003 34.9213C50.5003 34.5793 50.5093 34.2553 50.5273 33.9673C50.4823 33.8863 50.2573 33.8863 50.1943 33.9583L50.1493 34.1833C50.0593 34.6153 49.9513 34.6783 49.4833 34.6783H48.8623C48.6193 34.6783 48.6103 34.6603 48.6103 34.4083V32.8333ZM59.3452 33.3643C59.3452 32.5273 59.3992 32.4553 59.8042 32.3923L60.0382 32.3563C60.1102 32.3023 60.1102 32.0953 60.0382 32.0413C59.5882 32.0593 59.1382 32.0683 58.7062 32.0683C58.2742 32.0683 57.8242 32.0593 57.3562 32.0413C57.2482 32.0953 57.2482 32.3023 57.3382 32.3563L57.5992 32.3923C58.0042 32.4463 58.0582 32.5273 58.0582 33.3643V36.7123C58.0582 37.5493 58.0042 37.6213 57.5992 37.6753L57.2572 37.7203C57.1852 37.7743 57.2032 37.9813 57.2842 38.0353C57.8422 38.0173 58.2922 38.0083 58.7062 38.0083H59.9122C60.6502 38.0083 61.5142 38.0173 61.9912 38.0353C62.1172 37.7923 62.3332 37.0453 62.3782 36.5773C62.3152 36.4693 62.1082 36.4333 62.0362 36.5233C61.5052 37.5673 61.2532 37.5943 60.4342 37.5943C59.7772 37.5943 59.6152 37.5223 59.4982 37.3693C59.3812 37.2253 59.3452 36.9373 59.3452 36.5143V33.3643Z" fill="white"/>
<path d="M10.95 4.1083C8.35 4.1083 5.8 4.8583 4.025 6.3333C2.3 7.7583 1 9.9083 1 12.9583C1 16.0583 2.375 18.1333 4.175 19.5083C5.95 20.8333 8.45 21.4083 10.9 21.4083C12.85 21.4083 14.625 20.8583 15.975 20.4833C16.325 19.9083 16.75 18.4083 16.925 16.5583C16.775 16.2583 16.175 16.1833 15.975 16.3833C15.3 18.0833 13.9 20.2583 10.875 20.2583C7.875 20.2583 5 17.5833 5 12.6083C5 7.6333 7.975 5.2583 10.75 5.2583C13.175 5.2583 14.775 6.5083 15.45 8.8333C15.625 9.0583 16.3 8.9583 16.4 8.6583C16.175 7.2083 16.1 5.2083 16.1 4.7583C15.35 4.7083 13.5 4.1083 10.95 4.1083ZM27.4113 6.6333C27.4113 5.7083 27.4113 5.6583 28.2363 5.6583H30.2363C31.4613 5.6583 32.2113 5.9583 32.6863 6.4333C33.0113 6.7833 33.3613 7.5333 33.6363 8.4083C33.8863 8.6333 34.4613 8.5833 34.5613 8.3083C34.4363 6.6333 34.2613 4.8333 34.2363 4.4333C33.9113 4.4833 32.4863 4.5083 30.8863 4.5083H25.5863C24.3863 4.5083 23.1613 4.4833 21.9863 4.4333C21.7363 4.5833 21.7113 5.1583 21.9363 5.3083L22.5613 5.4333C23.6863 5.6583 23.8363 5.8083 23.8363 8.0833V17.4083C23.8363 19.7083 23.6863 19.8583 22.5613 20.0333L21.3863 20.2083C21.1863 20.3333 21.1863 20.9333 21.3863 21.0833C23.2613 21.0333 24.4863 21.0083 25.6863 21.0083H28.9363C30.9863 21.0083 33.3863 21.0333 34.7113 21.0833C35.0613 20.4083 35.6613 18.3833 35.7613 17.0833C35.6613 16.7833 35.0363 16.6833 34.8363 16.9583C33.4613 19.7833 32.6113 19.8583 30.4363 19.8583C28.6113 19.8583 28.1363 19.6583 27.8113 19.2083C27.5113 18.7833 27.4113 17.9833 27.4113 16.8333V13.8583C27.4113 13.1083 27.4363 13.0833 28.1113 13.0833H29.8363C31.1363 13.0833 31.4363 13.2833 31.6863 14.4833L31.8113 15.1083C31.9863 15.3333 32.6113 15.3083 32.7363 15.0833C32.6863 14.2833 32.6613 13.3833 32.6613 12.4333C32.6613 11.4833 32.6863 10.5833 32.7363 9.7833C32.6113 9.5583 31.9863 9.5583 31.8113 9.7583L31.6863 10.3833C31.4363 11.5833 31.1363 11.7583 29.8363 11.7583H28.1113C27.4363 11.7583 27.4113 11.7083 27.4113 11.0083V6.6333ZM45.9807 8.1083C45.9807 5.7833 46.1307 5.5833 47.2557 5.4083L47.9057 5.3083C48.1057 5.1583 48.1057 4.5833 47.9057 4.4333C46.6557 4.4833 45.4057 4.5083 44.2057 4.5083C43.0057 4.5083 41.7557 4.4833 40.4557 4.4333C40.1557 4.5833 40.1557 5.1583 40.4057 5.3083L41.1307 5.4083C42.2557 5.5583 42.4057 5.7833 42.4057 8.1083V17.4083C42.4057 19.7333 42.2557 19.9333 41.1307 20.0833L40.1807 20.2083C39.9807 20.3583 40.0307 20.9333 40.2557 21.0833C41.8057 21.0333 43.0557 21.0083 44.2057 21.0083H47.5557C49.6057 21.0083 52.0057 21.0333 53.3307 21.0833C53.6807 20.4083 54.2807 18.3333 54.4057 17.0333C54.2307 16.7333 53.6557 16.6333 53.4557 16.8833C51.9807 19.7833 51.2807 19.8583 49.0057 19.8583C47.1807 19.8583 46.7307 19.6583 46.4057 19.2333C46.0807 18.8333 45.9807 18.0333 45.9807 16.8583V8.1083ZM64.3547 6.6333C64.3547 5.7083 64.3547 5.6583 65.1797 5.6583H67.1797C68.4047 5.6583 69.1547 5.9583 69.6297 6.4333C69.9547 6.7833 70.3047 7.5333 70.5797 8.4083C70.8297 8.6333 71.4047 8.5833 71.5047 8.3083C71.3797 6.6333 71.2047 4.8333 71.1797 4.4333C70.8547 4.4833 69.4297 4.5083 67.8297 4.5083H62.5297C61.3297 4.5083 60.1047 4.4833 58.9297 4.4333C58.6797 4.5833 58.6547 5.1583 58.8797 5.3083L59.5047 5.4333C60.6297 5.6583 60.7797 5.8083 60.7797 8.0833V17.4083C60.7797 19.7083 60.6297 19.8583 59.5047 20.0333L58.3297 20.2083C58.1297 20.3333 58.1297 20.9333 58.3297 21.0833C60.2047 21.0333 61.4297 21.0083 62.6297 21.0083H65.8797C67.9297 21.0083 70.3297 21.0333 71.6547 21.0833C72.0047 20.4083 72.6047 18.3833 72.7047 17.0833C72.6047 16.7833 71.9797 16.6833 71.7797 16.9583C70.4047 19.7833 69.5547 19.8583 67.3797 19.8583C65.5547 19.8583 65.0797 19.6583 64.7547 19.2083C64.4547 18.7833 64.3547 17.9833 64.3547 16.8333V13.8583C64.3547 13.1083 64.3797 13.0833 65.0547 13.0833H66.7797C68.0797 13.0833 68.3797 13.2833 68.6297 14.4833L68.7547 15.1083C68.9297 15.3333 69.5547 15.3083 69.6797 15.0833C69.6297 14.2833 69.6047 13.3833 69.6047 12.4333C69.6047 11.4833 69.6297 10.5833 69.6797 9.7833C69.5547 9.5583 68.9297 9.5583 68.7547 9.7583L68.6297 10.3833C68.3797 11.5833 68.0797 11.7583 66.7797 11.7583H65.0547C64.3797 11.7583 64.3547 11.7083 64.3547 11.0083V6.6333ZM92.799 10.7833C92.799 8.7583 92.899 6.8833 93.174 6.2083C93.399 5.6833 93.874 5.4833 94.524 5.3833L94.974 5.3083C95.174 5.1083 95.124 4.5833 94.974 4.4333C93.999 4.4833 93.099 4.5083 92.174 4.5083C91.149 4.5083 90.174 4.4833 88.824 4.4333C88.674 4.5833 88.624 5.1083 88.824 5.3083L89.499 5.4083C90.174 5.5083 90.724 5.6833 90.949 6.2083C91.224 6.8833 91.324 8.7583 91.324 10.7833V14.2333C91.324 14.6833 91.324 15.1083 91.224 15.3583C90.649 14.7833 89.924 13.9083 88.824 12.6083L86.724 10.1333C84.474 7.4583 82.849 5.5583 82.599 4.4333C82.074 4.4833 81.349 4.5083 80.499 4.5083C79.474 4.5083 78.224 4.4833 77.049 4.4333C76.799 4.5083 76.774 5.1083 76.949 5.3083L77.649 5.4083C78.524 5.5333 78.874 5.8333 79.074 6.2583C79.224 6.6083 79.249 7.0083 79.249 8.3833V14.7333C79.249 16.7583 79.174 18.6333 78.899 19.3083C78.699 19.8333 78.199 20.0083 77.524 20.1333L77.099 20.2083C76.899 20.4083 76.949 20.9333 77.099 21.0833C78.049 21.0333 78.974 21.0083 79.899 21.0083C80.899 21.0083 81.899 21.0333 83.249 21.0833C83.399 20.9333 83.449 20.4083 83.249 20.2083L82.549 20.1083C81.899 20.0083 81.324 19.8333 81.099 19.3083C80.824 18.6333 80.724 16.7583 80.724 14.7333V9.8833C80.724 8.9583 80.724 8.5333 80.849 8.2833C81.299 8.6583 82.124 9.7083 83.574 11.4833L89.349 18.6333C90.524 20.0833 91.349 21.3583 91.374 21.3583C91.974 21.3583 92.674 21.0833 92.849 20.7833C92.799 19.9583 92.799 18.3833 92.799 16.7583V10.7833ZM105.375 8.1583C105.375 5.8083 105.525 5.6333 106.675 5.4333L107.375 5.3083C107.575 5.1583 107.575 4.5833 107.375 4.4333C106.025 4.4833 104.775 4.5083 103.6 4.5083C102.4 4.5083 101.15 4.4833 99.8002 4.4333C99.6002 4.5833 99.6002 5.1583 99.8002 5.3083L100.5 5.4333C101.65 5.6333 101.8 5.8083 101.8 8.1583V17.3583C101.8 19.7083 101.65 19.8833 100.5 20.0833L99.8002 20.2083C99.6002 20.3583 99.6002 20.9333 99.8002 21.0833C101.15 21.0333 102.4 21.0083 103.6 21.0083C104.775 21.0083 106 21.0333 107.35 21.0833C107.55 20.9333 107.575 20.3583 107.375 20.2083L106.675 20.0833C105.525 19.8833 105.375 19.7083 105.375 17.3583V8.1583ZM123.903 16.3333C123.903 13.5833 121.928 12.1333 120.378 11.3083L118.728 10.4333C117.478 9.7833 116.453 8.7333 116.453 7.5833C116.453 6.3333 117.353 5.2583 119.003 5.2583C120.803 5.2583 121.878 7.0833 122.303 8.3583C122.528 8.6083 123.153 8.5833 123.278 8.2833C123.278 6.6083 123.028 5.2583 122.828 4.7083C122.528 4.6583 122.303 4.6083 121.978 4.5083C120.978 4.2083 119.953 4.1083 119.128 4.1083C115.503 4.1083 113.303 6.0583 113.328 8.8833C113.328 11.3583 115.303 12.8583 117.103 13.7583C118.603 14.5083 120.503 15.7083 120.503 17.7333C120.503 18.9833 119.653 20.2583 117.803 20.2583C115.678 20.2583 114.003 17.9583 113.503 16.3333C113.303 16.0583 112.728 16.0833 112.553 16.4083C112.553 18.1083 112.878 19.9083 113.353 20.4583C113.878 20.7583 115.303 21.4083 117.603 21.4083C121.378 21.4083 123.903 19.4083 123.903 16.3333Z" fill="white"/>
</svg>
