<svg width="180" height="61" viewBox="0 0 180 61" fill="none" xmlns="http://www.w3.org/2000/svg">
<path d="M15.768 5.664C12.024 5.664 8.352 6.744 5.796 8.868C3.312 10.92 1.44 14.016 1.44 18.408C1.44 22.872 3.42 25.86 6.012 27.84C8.568 29.748 12.168 30.576 15.696 30.576C18.504 30.576 21.06 29.784 23.004 29.244C23.508 28.416 24.12 26.256 24.372 23.592C24.156 23.16 23.292 23.052 23.004 23.34C22.032 25.788 20.016 28.92 15.66 28.92C11.34 28.92 7.2 25.068 7.2 17.904C7.2 10.74 11.484 7.32 15.48 7.32C18.972 7.32 21.276 9.12 22.248 12.468C22.5 12.792 23.472 12.648 23.616 12.216C23.292 10.128 23.184 7.248 23.184 6.6C22.104 6.528 19.44 5.664 15.768 5.664ZM39.4723 9.3C39.4723 7.968 39.4723 7.896 40.6603 7.896H43.5403C45.3043 7.896 46.3843 8.328 47.0683 9.012C47.5363 9.516 48.0403 10.596 48.4363 11.856C48.7963 12.18 49.6243 12.108 49.7683 11.712C49.5883 9.3 49.3363 6.708 49.3003 6.132C48.8323 6.204 46.7803 6.24 44.4763 6.24H36.8443C35.1163 6.24 33.3523 6.204 31.6603 6.132C31.3003 6.348 31.2643 7.176 31.5883 7.392L32.4883 7.572C34.1083 7.896 34.3243 8.112 34.3243 11.388V24.816C34.3243 28.128 34.1083 28.344 32.4883 28.596L30.7963 28.848C30.5083 29.028 30.5083 29.892 30.7963 30.108C33.4963 30.036 35.2603 30 36.9883 30H41.6683C44.6203 30 48.0763 30.036 49.9843 30.108C50.4883 29.136 51.3523 26.22 51.4963 24.348C51.3523 23.916 50.4523 23.772 50.1643 24.168C48.1843 28.236 46.9603 28.344 43.8283 28.344C41.2003 28.344 40.5163 28.056 40.0483 27.408C39.6163 26.796 39.4723 25.644 39.4723 23.988V19.704C39.4723 18.624 39.5083 18.588 40.4803 18.588H42.9643C44.8363 18.588 45.2683 18.876 45.6283 20.604L45.8083 21.504C46.0603 21.828 46.9603 21.792 47.1403 21.468C47.0683 20.316 47.0323 19.02 47.0323 17.652C47.0323 16.284 47.0683 14.988 47.1403 13.836C46.9603 13.512 46.0603 13.512 45.8083 13.8L45.6283 14.7C45.2683 16.428 44.8363 16.68 42.9643 16.68H40.4803C39.5083 16.68 39.4723 16.608 39.4723 15.6V9.3ZM66.2122 11.424C66.2122 8.076 66.4282 7.788 68.0482 7.536L68.9842 7.392C69.2722 7.176 69.2722 6.348 68.9842 6.132C67.1842 6.204 65.3842 6.24 63.6562 6.24C61.9282 6.24 60.1282 6.204 58.2562 6.132C57.8242 6.348 57.8242 7.176 58.1842 7.392L59.2282 7.536C60.8482 7.752 61.0642 8.076 61.0642 11.424V24.816C61.0642 28.164 60.8482 28.452 59.2282 28.668L57.8602 28.848C57.5722 29.064 57.6442 29.892 57.9682 30.108C60.2002 30.036 62.0002 30 63.6562 30H68.4802C71.4322 30 74.8882 30.036 76.7962 30.108C77.3002 29.136 78.1642 26.148 78.3442 24.276C78.0922 23.844 77.2642 23.7 76.9762 24.06C74.8522 28.236 73.8442 28.344 70.5682 28.344C67.9402 28.344 67.2922 28.056 66.8242 27.444C66.3562 26.868 66.2122 25.716 66.2122 24.024V11.424ZM92.6707 9.3C92.6707 7.968 92.6707 7.896 93.8587 7.896H96.7387C98.5027 7.896 99.5827 8.328 100.267 9.012C100.735 9.516 101.239 10.596 101.635 11.856C101.995 12.18 102.823 12.108 102.967 11.712C102.787 9.3 102.535 6.708 102.499 6.132C102.031 6.204 99.9787 6.24 97.6747 6.24H90.0427C88.3147 6.24 86.5507 6.204 84.8587 6.132C84.4987 6.348 84.4627 7.176 84.7867 7.392L85.6867 7.572C87.3067 7.896 87.5227 8.112 87.5227 11.388V24.816C87.5227 28.128 87.3067 28.344 85.6867 28.596L83.9947 28.848C83.7067 29.028 83.7067 29.892 83.9947 30.108C86.6947 30.036 88.4587 30 90.1867 30H94.8667C97.8187 30 101.275 30.036 103.183 30.108C103.687 29.136 104.551 26.22 104.695 24.348C104.551 23.916 103.651 23.772 103.363 24.168C101.383 28.236 100.159 28.344 97.0267 28.344C94.3987 28.344 93.7147 28.056 93.2467 27.408C92.8147 26.796 92.6707 25.644 92.6707 23.988V19.704C92.6707 18.624 92.7067 18.588 93.6787 18.588H96.1627C98.0347 18.588 98.4667 18.876 98.8267 20.604L99.0067 21.504C99.2587 21.828 100.159 21.792 100.339 21.468C100.267 20.316 100.231 19.02 100.231 17.652C100.231 16.284 100.267 14.988 100.339 13.836C100.159 13.512 99.2587 13.512 99.0067 13.8L98.8267 14.7C98.4667 16.428 98.0347 16.68 96.1627 16.68H93.6787C92.7067 16.68 92.6707 16.608 92.6707 15.6V9.3ZM133.631 15.276C133.631 12.36 133.775 9.66 134.171 8.688C134.495 7.932 135.179 7.644 136.115 7.5L136.763 7.392C137.051 7.104 136.979 6.348 136.763 6.132C135.359 6.204 134.063 6.24 132.731 6.24C131.255 6.24 129.851 6.204 127.907 6.132C127.691 6.348 127.619 7.104 127.907 7.392L128.879 7.536C129.851 7.68 130.643 7.932 130.967 8.688C131.363 9.66 131.507 12.36 131.507 15.276V20.244C131.507 20.892 131.507 21.504 131.363 21.864C130.535 21.036 129.491 19.776 127.907 17.904L124.883 14.34C121.643 10.488 119.303 7.752 118.943 6.132C118.187 6.204 117.143 6.24 115.919 6.24C114.443 6.24 112.643 6.204 110.951 6.132C110.591 6.24 110.555 7.104 110.807 7.392L111.815 7.536C113.075 7.716 113.579 8.148 113.867 8.76C114.083 9.264 114.119 9.84 114.119 11.82V20.964C114.119 23.88 114.011 26.58 113.615 27.552C113.327 28.308 112.607 28.56 111.635 28.74L111.023 28.848C110.735 29.136 110.807 29.892 111.023 30.108C112.391 30.036 113.723 30 115.055 30C116.495 30 117.935 30.036 119.879 30.108C120.095 29.892 120.167 29.136 119.879 28.848L118.871 28.704C117.935 28.56 117.107 28.308 116.783 27.552C116.387 26.58 116.243 23.88 116.243 20.964V13.98C116.243 12.648 116.243 12.036 116.423 11.676C117.071 12.216 118.259 13.728 120.347 16.284L128.663 26.58C130.355 28.668 131.543 30.504 131.579 30.504C132.443 30.504 133.451 30.108 133.703 29.676C133.631 28.488 133.631 26.22 133.631 23.88V15.276ZM151.74 11.496C151.74 8.112 151.956 7.86 153.612 7.572L154.62 7.392C154.908 7.176 154.908 6.348 154.62 6.132C152.676 6.204 150.876 6.24 149.184 6.24C147.456 6.24 145.656 6.204 143.712 6.132C143.424 6.348 143.424 7.176 143.712 7.392L144.72 7.572C146.376 7.86 146.592 8.112 146.592 11.496V24.744C146.592 28.128 146.376 28.38 144.72 28.668L143.712 28.848C143.424 29.064 143.424 29.892 143.712 30.108C145.656 30.036 147.456 30 149.184 30C150.876 30 152.64 30.036 154.584 30.108C154.872 29.892 154.908 29.064 154.62 28.848L153.612 28.668C151.956 28.38 151.74 28.128 151.74 24.744V11.496ZM178.42 23.268C178.42 19.308 175.576 17.22 173.344 16.032L170.968 14.772C169.168 13.836 167.692 12.324 167.692 10.668C167.692 8.868 168.988 7.32 171.364 7.32C173.956 7.32 175.504 9.948 176.116 11.784C176.44 12.144 177.34 12.108 177.52 11.676C177.52 9.264 177.16 7.32 176.872 6.528C176.44 6.456 176.116 6.384 175.648 6.24C174.208 5.808 172.732 5.664 171.544 5.664C166.324 5.664 163.156 8.472 163.192 12.54C163.192 16.104 166.036 18.264 168.628 19.56C170.788 20.64 173.524 22.368 173.524 25.284C173.524 27.084 172.3 28.92 169.636 28.92C166.576 28.92 164.164 25.608 163.444 23.268C163.156 22.872 162.328 22.908 162.076 23.376C162.076 25.824 162.544 28.416 163.228 29.208C163.984 29.64 166.036 30.576 169.348 30.576C174.784 30.576 178.42 27.696 178.42 23.268Z" fill="#14274A"/>
<path d="M45.605 50.245C46.235 50.245 46.235 50.26 46.235 50.68V52.84C46.235 54.235 46.16 54.385 45.47 54.475L45.14 54.52C45.02 54.61 45.02 54.955 45.14 55.045C45.86 55.015 46.595 55 47.345 55C48.035 55 48.77 55.015 49.52 55.045C49.64 54.955 49.64 54.61 49.52 54.52L49.16 54.46C48.47 54.34 48.38 54.235 48.38 52.84V47.26C48.38 45.865 48.47 45.73 49.16 45.625L49.46 45.58C49.58 45.49 49.58 45.145 49.46 45.055C48.77 45.085 48.08 45.1 47.345 45.1C46.625 45.1 45.89 45.085 45.065 45.055C44.945 45.145 44.945 45.49 45.065 45.58L45.47 45.64C46.16 45.745 46.235 45.865 46.235 47.26V49C46.235 49.435 46.235 49.45 45.605 49.45H42.485C41.87 49.45 41.855 49.435 41.855 49V47.26C41.855 45.865 41.945 45.715 42.59 45.625L42.905 45.58C43.025 45.49 43.025 45.145 42.905 45.055C42.245 45.085 41.495 45.1 40.82 45.1C40.1 45.1 39.32 45.085 38.585 45.055C38.465 45.145 38.465 45.49 38.585 45.58L38.945 45.625C39.635 45.715 39.71 45.865 39.71 47.26V52.84C39.71 54.235 39.635 54.385 38.945 54.475L38.585 54.52C38.465 54.61 38.465 54.955 38.585 55.045C39.35 55.015 40.1 55 40.82 55C41.495 55 42.245 55.015 43.1 55.045C43.22 54.955 43.22 54.61 43.1 54.52L42.62 54.46C41.945 54.37 41.855 54.235 41.855 52.84V50.68C41.855 50.26 41.87 50.245 42.485 50.245H45.605ZM65.04 44.86C61.905 44.86 59.685 47.155 59.685 50.125C59.685 53.26 61.875 55.24 64.89 55.24C68.115 55.24 70.305 53.275 70.305 50.005C70.305 46.96 68.16 44.86 65.04 44.86ZM67.905 50.2C67.905 52.63 67.14 54.55 65.175 54.55C62.73 54.55 62.085 51.61 62.085 49.78C62.085 47.275 63.075 45.55 64.92 45.55C66.78 45.55 67.905 47.635 67.905 50.2ZM87.0613 52.195C87.0613 50.545 85.8763 49.675 84.9463 49.18L83.9563 48.655C83.2063 48.265 82.5913 47.635 82.5913 46.945C82.5913 46.195 83.1313 45.55 84.1213 45.55C85.2013 45.55 85.8463 46.645 86.1013 47.41C86.2363 47.56 86.6113 47.545 86.6863 47.365C86.6863 46.36 86.5363 45.55 86.4163 45.22C86.2363 45.19 86.1013 45.16 85.9063 45.1C85.3063 44.92 84.6913 44.86 84.1963 44.86C82.0213 44.86 80.7013 46.03 80.7163 47.725C80.7163 49.21 81.9013 50.11 82.9813 50.65C83.8813 51.1 85.0213 51.82 85.0213 53.035C85.0213 53.785 84.5113 54.55 83.4013 54.55C82.1263 54.55 81.1213 53.17 80.8213 52.195C80.7013 52.03 80.3563 52.045 80.2513 52.24C80.2513 53.26 80.4463 54.34 80.7313 54.67C81.0463 54.85 81.9013 55.24 83.2813 55.24C85.5463 55.24 87.0613 54.04 87.0613 52.195ZM100.319 52.84C100.319 54.235 100.229 54.37 99.5541 54.445L98.8791 54.52C98.7591 54.61 98.7591 54.955 98.8791 55.045C99.9291 55.015 100.709 55 101.429 55C102.104 55 102.854 55.015 103.829 55.045C103.934 54.955 103.934 54.61 103.829 54.52L103.229 54.445C102.554 54.355 102.464 54.235 102.464 52.84V46.225C102.464 45.835 102.509 45.79 102.869 45.79H103.769C104.894 45.79 105.104 46.495 105.359 47.455C105.434 47.575 105.839 47.545 105.914 47.41C105.884 46.555 105.989 45.34 106.139 44.83C106.109 44.785 106.004 44.725 105.914 44.725C105.824 44.725 105.779 44.74 105.719 44.77C105.584 45.085 105.359 45.1 104.369 45.1H98.7891C97.6491 45.1 97.6041 45.04 97.5291 44.785C97.4691 44.74 97.3941 44.725 97.3191 44.725C97.2441 44.725 97.1691 44.755 97.1091 44.8C97.0041 45.385 96.9291 46.315 96.6141 47.35C96.7041 47.545 96.9891 47.575 97.1691 47.485C97.6191 46.39 97.9341 45.79 99.0291 45.79H99.9591C100.319 45.79 100.319 45.865 100.319 46.225V52.84ZM119.017 46.375C119.017 45.82 119.017 45.79 119.512 45.79H120.712C121.447 45.79 121.897 45.97 122.182 46.255C122.377 46.465 122.587 46.915 122.752 47.44C122.902 47.575 123.247 47.545 123.307 47.38C123.232 46.375 123.127 45.295 123.112 45.055C122.917 45.085 122.062 45.1 121.102 45.1H117.922C117.202 45.1 116.467 45.085 115.762 45.055C115.612 45.145 115.597 45.49 115.732 45.58L116.107 45.655C116.782 45.79 116.872 45.88 116.872 47.245V52.84C116.872 54.22 116.782 54.31 116.107 54.415L115.402 54.52C115.282 54.595 115.282 54.955 115.402 55.045C116.527 55.015 117.262 55 117.982 55H119.932C121.162 55 122.602 55.015 123.397 55.045C123.607 54.64 123.967 53.425 124.027 52.645C123.967 52.465 123.592 52.405 123.472 52.57C122.647 54.265 122.137 54.31 120.832 54.31C119.737 54.31 119.452 54.19 119.257 53.92C119.077 53.665 119.017 53.185 119.017 52.495V50.71C119.017 50.26 119.032 50.245 119.437 50.245H120.472C121.252 50.245 121.432 50.365 121.582 51.085L121.657 51.46C121.762 51.595 122.137 51.58 122.212 51.445C122.182 50.965 122.167 50.425 122.167 49.855C122.167 49.285 122.182 48.745 122.212 48.265C122.137 48.13 121.762 48.13 121.657 48.25L121.582 48.625C121.432 49.345 121.252 49.45 120.472 49.45H119.437C119.032 49.45 119.017 49.42 119.017 49V46.375ZM136.909 47.26C136.909 45.865 136.999 45.745 137.674 45.64L138.064 45.58C138.184 45.49 138.184 45.145 138.064 45.055C137.314 45.085 136.564 45.1 135.844 45.1C135.124 45.1 134.374 45.085 133.594 45.055C133.414 45.145 133.414 45.49 133.564 45.58L133.999 45.64C134.674 45.73 134.764 45.865 134.764 47.26V52.84C134.764 54.235 134.674 54.355 133.999 54.445L133.429 54.52C133.309 54.61 133.339 54.955 133.474 55.045C134.404 55.015 135.154 55 135.844 55H137.854C139.084 55 140.524 55.015 141.319 55.045C141.529 54.64 141.889 53.395 141.964 52.615C141.859 52.435 141.514 52.375 141.394 52.525C140.509 54.265 140.089 54.31 138.724 54.31C137.629 54.31 137.359 54.19 137.164 53.935C136.969 53.695 136.909 53.215 136.909 52.51V47.26Z" fill="#14274A"/>
</svg>
