<svg width="20" height="20" viewBox="0 0 20 20" fill="none" xmlns="http://www.w3.org/2000/svg">
<path fill-rule="evenodd" clip-rule="evenodd" d="M9.74661 2.00034C10.9918 1.95237 12.2388 1.98577 13.4796 2.10034C14.0816 2.09277 14.6796 2.19826 15.2426 2.41134C16.0194 2.77329 16.6437 3.39756 17.0056 4.17434C17.2182 4.73882 17.3226 5.33824 17.3136 5.94134C17.3136 6.87434 17.4136 7.18534 17.4136 9.67434C17.4616 10.9195 17.4282 12.1665 17.3136 13.4073C17.3212 14.0093 17.2157 14.6073 17.0026 15.1703C16.6407 15.9471 16.0164 16.5714 15.2396 16.9333C14.6766 17.1464 14.0786 17.2519 13.4766 17.2443C12.5436 17.2443 12.2326 17.3443 9.74361 17.3443C8.49936 17.3912 7.25337 17.3568 6.01361 17.2413C5.41165 17.2489 4.81363 17.1434 4.25061 16.9303C3.4745 16.5694 2.85032 15.9466 2.48761 15.1713C2.27453 14.6083 2.16903 14.0103 2.17661 13.4083C2.17661 12.4753 2.07661 12.1643 2.07661 9.67534C2.02863 8.43016 2.06204 7.18317 2.17661 5.94234C2.16903 5.34039 2.27453 4.74237 2.48761 4.17934C2.66857 3.79443 2.91412 3.44336 3.21361 3.14134C3.45678 2.77863 3.82658 2.51973 4.25061 2.41534C4.81363 2.20226 5.41165 2.09677 6.01361 2.10434C7.25443 1.98977 8.50142 1.95637 9.74661 2.00434V2.00034ZM9.74661 0.341342C8.4681 0.294625 7.18793 0.328024 5.91361 0.441342C5.13276 0.440445 4.35833 0.582451 3.62861 0.860342C2.99934 1.06561 2.42981 1.42161 1.96961 1.89734C1.49387 2.35754 1.13787 2.92708 0.932606 3.55634C0.604957 4.27127 0.460937 5.05667 0.513606 5.84134C0.400288 7.11567 0.366889 8.39584 0.413606 9.67434C0.366722 10.9542 0.400121 12.2357 0.513606 13.5113C0.511919 14.2906 0.65256 15.0636 0.928606 15.7923C1.13387 16.4216 1.48987 16.9911 1.96561 17.4513C2.42581 17.9271 2.99534 18.2831 3.62461 18.4883C4.35333 18.7644 5.12635 18.905 5.90561 18.9033C7.18126 19.0168 8.46277 19.0502 9.74261 19.0033C11.0224 19.0502 12.304 19.0168 13.5796 18.9033C14.3589 18.905 15.1319 18.7644 15.8606 18.4883C16.4863 18.2732 17.0547 17.9182 17.5226 17.4503C17.9905 16.9825 18.3455 16.4141 18.5606 15.7883C18.8367 15.0596 18.9773 14.2866 18.9756 13.5073C18.9756 12.4703 19.0756 12.1593 19.0756 9.67034C19.1225 8.39051 19.0891 7.109 18.9756 5.83334C18.9773 5.05408 18.8367 4.28107 18.5606 3.55234C18.3553 2.92308 17.9993 2.35354 17.5236 1.89334C17.0632 1.4192 16.4941 1.0646 15.8656 0.860342C15.1368 0.58281 14.3634 0.440811 13.5836 0.441342C12.308 0.327854 11.0264 0.294455 9.74661 0.341342ZM9.74661 4.90434C9.11737 4.89407 8.49249 5.01043 7.90912 5.24651C7.32576 5.48259 6.79582 5.83356 6.35082 6.27856C5.90582 6.72356 5.55485 7.25349 5.31877 7.83686C5.08269 8.42022 4.96633 9.0451 4.97661 9.67434C4.97661 10.6178 5.25636 11.54 5.7805 12.3244C6.30463 13.1088 7.0496 13.7202 7.92121 14.0812C8.79281 14.4423 9.7519 14.5367 10.6772 14.3527C11.6025 14.1686 12.4524 13.7143 13.1195 13.0472C13.7866 12.3801 14.2409 11.5302 14.425 10.6049C14.609 9.67963 14.5145 8.72055 14.1535 7.84894C13.7925 6.97734 13.1811 6.23237 12.3967 5.70823C11.6123 5.1841 10.69 4.90434 9.74661 4.90434ZM9.74661 12.7853C9.33601 12.7928 8.92812 12.7174 8.54731 12.5637C8.1665 12.41 7.82057 12.1811 7.53018 11.8908C7.2398 11.6004 7.01092 11.2545 6.85722 10.8736C6.70352 10.4928 6.62815 10.0849 6.63561 9.67434C6.62815 9.26375 6.70352 8.85586 6.85722 8.47505C7.01092 8.09423 7.2398 7.7483 7.53018 7.45792C7.82057 7.16754 8.1665 6.93866 8.54731 6.78496C8.92812 6.63126 9.33601 6.55588 9.74661 6.56334C10.1572 6.55588 10.5651 6.63126 10.9459 6.78496C11.3267 6.93866 11.6726 7.16754 11.963 7.45792C12.2534 7.7483 12.4823 8.09423 12.636 8.47505C12.7897 8.85586 12.8651 9.26375 12.8576 9.67434C12.8651 10.0849 12.7897 10.4928 12.636 10.8736C12.4823 11.2545 12.2534 11.6004 11.963 11.8908C11.6726 12.1811 11.3267 12.41 10.9459 12.5637C10.5651 12.7174 10.1572 12.7928 9.74661 12.7853ZM14.7246 3.55534C14.4989 3.55534 14.2783 3.62226 14.0907 3.74763C13.9031 3.87301 13.7568 4.05121 13.6705 4.2597C13.5841 4.46819 13.5615 4.69761 13.6055 4.91894C13.6496 5.14027 13.7582 5.34358 13.9178 5.50315C14.0774 5.66272 14.2807 5.77139 14.502 5.81542C14.7233 5.85944 14.9528 5.83685 15.1612 5.75049C15.3697 5.66413 15.5479 5.51788 15.6733 5.33025C15.7987 5.14261 15.8656 4.92201 15.8656 4.69634C15.863 4.39454 15.7419 4.10583 15.5285 3.89242C15.3151 3.679 15.0264 3.55795 14.7246 3.55534Z" fill="white"/>
</svg>
