<svg width="20" height="16" viewBox="0 0 20 16" fill="none" xmlns="http://www.w3.org/2000/svg">
<path fill-rule="evenodd" clip-rule="evenodd" d="M6.32464 15.8159C7.75821 15.8289 9.17999 15.5561 10.507 15.0134C11.8339 14.4708 13.0395 13.6692 14.0532 12.6555C15.0669 11.6418 15.8685 10.4362 16.4111 9.10925C16.9538 7.78229 17.2266 6.36051 17.2136 4.92695V4.40795C17.9383 3.85643 18.5688 3.19115 19.0806 2.43795C18.3852 2.7403 17.6529 2.94944 16.9026 3.05995C17.6738 2.57563 18.2585 1.84468 18.5616 0.985948C17.8123 1.40304 17.0101 1.71688 16.1766 1.91895C15.8259 1.52365 15.3944 1.20809 14.9115 0.993503C14.4285 0.77892 13.9051 0.670298 13.3766 0.674948C12.3641 0.691177 11.3975 1.10064 10.6814 1.81673C9.96534 2.53282 9.55587 3.49937 9.53964 4.51195C9.51479 4.79256 9.54886 5.07527 9.63964 5.34195C8.11374 5.26824 6.6212 4.8693 5.262 4.17185C3.90281 3.4744 2.70836 2.49456 1.75864 1.29795C1.41728 1.89831 1.23839 2.57732 1.23964 3.26795C1.25333 3.89474 1.40989 4.51015 1.69738 5.06729C1.98487 5.62442 2.39573 6.10861 2.89864 6.48295C2.27524 6.47008 1.66659 6.2909 1.13564 5.96395C1.13463 6.85209 1.44555 7.71237 2.01414 8.39464C2.58273 9.07691 3.37287 9.53783 4.24664 9.69695C3.90876 9.7867 3.55845 9.82048 3.20964 9.79695C2.96331 9.81478 2.71598 9.78071 2.48364 9.69695C2.73668 10.4662 3.22125 11.1385 3.87104 11.6218C4.52083 12.1051 5.30409 12.3759 6.11364 12.3969C4.75052 13.4616 3.07324 14.045 1.34364 14.0559C1.02926 14.074 0.714056 14.0402 0.410645 13.9559C2.12667 15.2022 4.20108 15.8574 6.32164 15.8229" fill="white"/>
</svg>
